<svg width="104" height="32" viewBox="0 0 104 32" fill="none" xmlns="http://www.w3.org/2000/svg">
<path d="M53.76 9.008V9.488C53.264 9.552 52.784 9.712 52.32 9.968C51.856 10.224 51.392 10.648 50.928 11.24L46.296 17.168L46.824 15.992L52.584 24.056C52.856 24.456 53.152 24.768 53.472 24.992C53.792 25.216 54.2 25.392 54.696 25.52V26C54.312 25.968 53.832 25.952 53.256 25.952C52.696 25.936 52.216 25.928 51.816 25.928C51.544 25.928 51.208 25.936 50.808 25.952C50.424 25.952 49.936 25.968 49.344 26V25.52C49.888 25.488 50.232 25.392 50.376 25.232C50.52 25.072 50.464 24.808 50.208 24.44L46.704 19.16C46.384 18.664 46.096 18.296 45.84 18.056C45.6 17.8 45.344 17.632 45.072 17.552C44.816 17.472 44.488 17.424 44.088 17.408V16.928C44.76 16.912 45.32 16.784 45.768 16.544C46.232 16.288 46.616 15.968 46.92 15.584L49.224 12.656C49.752 11.984 50.112 11.416 50.304 10.952C50.496 10.488 50.488 10.136 50.28 9.896C50.072 9.64 49.632 9.504 48.96 9.488V9.008C49.264 9.024 49.576 9.04 49.896 9.056C50.216 9.056 50.528 9.064 50.832 9.08C51.152 9.08 51.448 9.08 51.72 9.08C52.136 9.08 52.52 9.072 52.872 9.056C53.224 9.04 53.52 9.024 53.76 9.008ZM46.128 9.008V9.488C45.584 9.504 45.168 9.568 44.88 9.68C44.608 9.776 44.424 9.968 44.328 10.256C44.232 10.528 44.184 10.96 44.184 11.552V23.456C44.184 24.032 44.232 24.464 44.328 24.752C44.424 25.04 44.608 25.232 44.88 25.328C45.168 25.424 45.584 25.488 46.128 25.52V26C45.76 25.968 45.296 25.952 44.736 25.952C44.192 25.936 43.64 25.928 43.08 25.928C42.456 25.928 41.872 25.936 41.328 25.952C40.784 25.952 40.344 25.968 40.008 26V25.52C40.552 25.488 40.96 25.424 41.232 25.328C41.52 25.232 41.712 25.04 41.808 24.752C41.904 24.464 41.952 24.032 41.952 23.456V11.552C41.952 10.96 41.904 10.528 41.808 10.256C41.712 9.968 41.52 9.776 41.232 9.68C40.96 9.568 40.552 9.504 40.008 9.488V9.008C40.344 9.024 40.784 9.04 41.328 9.056C41.872 9.072 42.456 9.08 43.08 9.08C43.64 9.08 44.192 9.072 44.736 9.056C45.296 9.04 45.76 9.024 46.128 9.008ZM62.8866 13.304C63.3186 13.304 63.6946 13.392 64.0146 13.568C64.3506 13.744 64.6066 13.976 64.7826 14.264C64.9746 14.536 65.0706 14.848 65.0706 15.2C65.0706 15.6 64.9426 15.952 64.6866 16.256C64.4466 16.56 64.1186 16.712 63.7026 16.712C63.3666 16.712 63.0706 16.608 62.8146 16.4C62.5586 16.176 62.4306 15.864 62.4306 15.464C62.4306 15.16 62.5106 14.904 62.6706 14.696C62.8466 14.472 63.0386 14.296 63.2466 14.168C63.1346 14.008 62.9666 13.928 62.7426 13.928C62.2466 13.928 61.7906 14.08 61.3746 14.384C60.9586 14.672 60.6066 15.048 60.3186 15.512C60.0306 15.976 59.8066 16.472 59.6466 17C59.4866 17.512 59.4066 17.992 59.4066 18.44V23.528C59.4066 24.312 59.6306 24.84 60.0786 25.112C60.5426 25.368 61.1666 25.496 61.9506 25.496V26C61.5826 25.984 61.0626 25.968 60.3906 25.952C59.7186 25.92 59.0066 25.904 58.2546 25.904C57.7106 25.904 57.1666 25.92 56.6226 25.952C56.0946 25.968 55.6946 25.984 55.4226 26V25.496C56.0786 25.496 56.5426 25.376 56.8146 25.136C57.1026 24.896 57.2466 24.44 57.2466 23.768V16.256C57.2466 15.536 57.1186 15.008 56.8626 14.672C56.6066 14.32 56.1266 14.144 55.4226 14.144V13.64C55.9346 13.688 56.4306 13.712 56.9106 13.712C57.3746 13.712 57.8146 13.688 58.2306 13.64C58.6626 13.576 59.0546 13.488 59.4066 13.376V16.376C59.5826 15.912 59.8306 15.448 60.1506 14.984C60.4866 14.504 60.8866 14.104 61.3506 13.784C61.8146 13.464 62.3266 13.304 62.8866 13.304ZM71.4733 13.304C72.8813 13.304 73.9773 13.736 74.7613 14.6C75.5613 15.448 75.9613 16.776 75.9613 18.584H67.4893L67.4653 18.128H73.6573C73.6893 17.344 73.6253 16.624 73.4653 15.968C73.3053 15.296 73.0493 14.76 72.6973 14.36C72.3613 13.96 71.9213 13.76 71.3773 13.76C70.6413 13.76 69.9853 14.128 69.4093 14.864C68.8493 15.6 68.5133 16.768 68.4013 18.368L68.4733 18.464C68.4413 18.704 68.4173 18.968 68.4013 19.256C68.3853 19.544 68.3773 19.832 68.3773 20.12C68.3773 21.208 68.5533 22.144 68.9053 22.928C69.2573 23.712 69.7133 24.312 70.2733 24.728C70.8493 25.128 71.4413 25.328 72.0493 25.328C72.5293 25.328 72.9853 25.256 73.4173 25.112C73.8493 24.952 74.2493 24.696 74.6173 24.344C74.9853 23.992 75.3053 23.52 75.5773 22.928L76.0573 23.12C75.8813 23.648 75.5933 24.16 75.1933 24.656C74.7933 25.152 74.2893 25.56 73.6813 25.88C73.0733 26.184 72.3693 26.336 71.5693 26.336C70.4173 26.336 69.4253 26.072 68.5933 25.544C67.7773 25.016 67.1453 24.288 66.6973 23.36C66.2653 22.416 66.0493 21.336 66.0493 20.12C66.0493 18.712 66.2733 17.504 66.7213 16.496C67.1693 15.472 67.8013 14.688 68.6173 14.144C69.4333 13.584 70.3853 13.304 71.4733 13.304ZM83.6139 13.304C85.0219 13.304 86.1179 13.736 86.9019 14.6C87.7019 15.448 88.1019 16.776 88.1019 18.584H79.6299L79.6059 18.128H85.7979C85.8299 17.344 85.7659 16.624 85.6059 15.968C85.4459 15.296 85.1899 14.76 84.8379 14.36C84.5019 13.96 84.0619 13.76 83.5179 13.76C82.7819 13.76 82.1259 14.128 81.5499 14.864C80.9899 15.6 80.6539 16.768 80.5419 18.368L80.6139 18.464C80.5819 18.704 80.5579 18.968 80.5419 19.256C80.5259 19.544 80.5179 19.832 80.5179 20.12C80.5179 21.208 80.6939 22.144 81.0459 22.928C81.3979 23.712 81.8539 24.312 82.4139 24.728C82.9899 25.128 83.5819 25.328 84.1899 25.328C84.6699 25.328 85.1259 25.256 85.5579 25.112C85.9899 24.952 86.3899 24.696 86.7579 24.344C87.1259 23.992 87.4459 23.52 87.7179 22.928L88.1979 23.12C88.0219 23.648 87.7339 24.16 87.3339 24.656C86.9339 25.152 86.4299 25.56 85.8219 25.88C85.2139 26.184 84.5099 26.336 83.7099 26.336C82.5579 26.336 81.5659 26.072 80.7339 25.544C79.9179 25.016 79.2859 24.288 78.8379 23.36C78.4059 22.416 78.1899 21.336 78.1899 20.12C78.1899 18.712 78.4139 17.504 78.8619 16.496C79.3099 15.472 79.9419 14.688 80.7579 14.144C81.5739 13.584 82.5259 13.304 83.6139 13.304ZM100.843 7.184V23.384C100.843 24.104 100.971 24.64 101.227 24.992C101.499 25.328 101.979 25.496 102.667 25.496V26C102.171 25.952 101.675 25.928 101.179 25.928C100.715 25.928 100.267 25.952 99.8346 26C99.4186 26.048 99.0346 26.136 98.6826 26.264V10.064C98.6826 9.344 98.5546 8.816 98.2986 8.48C98.0426 8.128 97.5626 7.952 96.8586 7.952V7.448C97.3706 7.496 97.8666 7.52 98.3466 7.52C98.8106 7.52 99.2506 7.496 99.6666 7.448C100.099 7.384 100.491 7.296 100.843 7.184ZM95.8026 13.304C96.5066 13.304 97.1626 13.472 97.7706 13.808C98.3946 14.144 98.8106 14.72 99.0186 15.536L98.7066 15.776C98.4826 15.104 98.1306 14.616 97.6506 14.312C97.1866 14.008 96.6346 13.856 95.9946 13.856C95.0506 13.856 94.2586 14.344 93.6186 15.32C92.9946 16.296 92.6906 17.8 92.7066 19.832C92.7066 21.128 92.8266 22.208 93.0666 23.072C93.3226 23.92 93.6906 24.56 94.1706 24.992C94.6666 25.408 95.2666 25.616 95.9706 25.616C96.6426 25.616 97.2506 25.328 97.7946 24.752C98.3386 24.176 98.6666 23.328 98.7786 22.208L99.0666 22.544C98.9386 23.76 98.5466 24.696 97.8906 25.352C97.2506 26.008 96.3786 26.336 95.2746 26.336C94.2826 26.336 93.4106 26.096 92.6586 25.616C91.9226 25.136 91.3546 24.416 90.9546 23.456C90.5706 22.496 90.3786 21.288 90.3786 19.832C90.3786 18.376 90.6266 17.168 91.1226 16.208C91.6346 15.232 92.2986 14.504 93.1146 14.024C93.9466 13.544 94.8426 13.304 95.8026 13.304Z" fill="#660E10"/>
<rect y="1" width="30" height="30" rx="6" fill="#E14649"/>
<path d="M9.70947 22.6781C9.15719 22.6781 8.70947 22.2304 8.70947 21.6781V10.2258C8.70947 9.67355 9.15719 9.22583 9.70947 9.22583H10.7611C11.3134 9.22583 11.7611 9.67355 11.7611 10.2258V21.6781C11.7611 22.2304 11.3134 22.6781 10.7611 22.6781H9.70947ZM12.7492 16.4557C12.67 16.2417 12.6664 16.007 12.739 15.7906L14.7137 9.90761C14.8505 9.50029 15.2321 9.22583 15.6618 9.22583H16.5646C17.2468 9.22583 17.7288 9.89397 17.5135 10.5414L15.7666 15.7949C15.6955 16.0086 15.6987 16.2401 15.7756 16.4519L17.5502 21.3367C17.7871 21.9888 17.3041 22.6781 16.6103 22.6781H15.7471C15.3286 22.6781 14.9544 22.4175 14.8092 22.0251L12.7492 16.4557Z" fill="white"/>
<path d="M19.0114 21.3329C19.0114 20.7564 19.2928 20.3272 19.8555 20.0453C20.1008 19.93 20.3605 19.8724 20.6347 19.8724C21.2839 19.8724 21.7601 20.1222 22.0631 20.6218C22.1929 20.8396 22.2579 21.0767 22.2579 21.3329C22.2579 21.9222 21.9693 22.345 21.3921 22.6013C21.1469 22.7166 20.8944 22.7742 20.6347 22.7742C19.9709 22.7742 19.4948 22.518 19.2062 22.0055C19.0764 21.7877 19.0114 21.5635 19.0114 21.3329Z" fill="white"/>
</svg>
